<svg width="40" height="40" xmlns="http://www.w3.org/2000/svg">
 <g>
  <title>Layer 1</title>
  <path fill="#fff" stroke="#000" d="m916.6601,337.64908l0.02706,0.28147l-0.01116,0.03322l0.03408,0.24116l-0.01115,0.04027l0.04213,0.40384l-0.07146,-0.30948l0.01363,-0.04298l-0.0444,-0.19822l0.01591,-0.06126l-0.04688,-0.20794l0.05224,-0.18009l0,0.00001z" id="svg_15"/>
  <ellipse fill="none" stroke="#ffffff" stroke-width="8" cx="186.5851" cy="258.2" id="svg_34" rx="18" ry="18"/>
  <ellipse fill="none" stroke="#ffffff" stroke-width="8" cx="93.5851" cy="270.2" id="svg_37" rx="22" ry="22" transform="rotate(180, 93.585, 270.2)"/>
  <path fill="#000000" d="m-17.19658,-11.42435l-0.00638,-0.02253c0.00187,-0.00165 0.00362,-0.00342 0.00528,-0.00532l0.02231,0.00644c0.00235,-0.00346 0.00438,-0.00713 0.00619,-0.01094l-0.01661,-0.01621c0.0008,-0.00238 0.00148,-0.00481 0.00198,-0.0073l0.02238,-0.00566c0.00016,-0.00208 0.00032,-0.00418 0.00032,-0.00631s-0.00016,-0.00422 -0.00032,-0.0063l-0.02238,-0.00566c-0.0005,-0.0025 -0.00119,-0.00492 -0.00198,-0.0073l0.01661,-0.01621c-0.00182,-0.00381 -0.00385,-0.00749 -0.0062,-0.01094l-0.02231,0.00643c-0.00165,-0.00189 -0.00341,-0.00366 -0.00528,-0.00532l0.00638,-0.02252c-0.00343,-0.00237 -0.00708,-0.00442 -0.01086,-0.00625l-0.01607,0.01676c-0.00235,-0.0008 -0.00476,-0.00149 -0.00724,-0.00199l-0.0056,-0.02258c-0.00207,-0.00016 -0.00414,-0.00032 -0.00626,-0.00032s-0.00418,0.00017 -0.00625,0.00032l-0.00561,0.02258c-0.00248,0.0005 -0.00488,0.00119 -0.00724,0.00199l-0.01607,-0.01676c-0.00377,0.00185 -0.00741,0.0039 -0.01084,0.00627l0.00638,0.02252c-0.00187,0.00165 -0.00363,0.00343 -0.00527,0.00531l-0.02232,-0.00644c-0.00235,0.00346 -0.00438,0.00714 -0.00619,0.01095l0.01661,0.01621c-0.00079,0.00238 -0.00148,0.00481 -0.00198,0.0073l-0.02239,0.00566c-0.00016,0.00208 -0.00032,0.00418 -0.00032,0.0063s0.00016,0.00422 0.00032,0.00631l0.02239,0.00566c0.0005,0.0025 0.00119,0.00492 0.00198,0.0073l-0.01661,0.01621c0.00181,0.00381 0.00384,0.00749 0.00619,0.01094l0.02232,-0.00644c0.00164,0.00189 0.0034,0.00366 0.00527,0.00532l-0.00638,0.02253c0.00343,0.00237 0.00708,0.00441 0.01085,0.00625l0.01607,-0.01676c0.00236,0.0008 0.00476,0.0015 0.00724,0.00199l0.00561,0.02258c0.00207,0.00017 0.00414,0.00032 0.00626,0.00032s0.00418,-0.00017 0.00626,-0.00032l0.0056,-0.02258c0.00248,-0.0005 0.00489,-0.0012 0.00724,-0.00199l0.01607,0.01676c0.00376,-0.00185 0.00741,-0.0039 0.01084,-0.00626l0.00001,0zm-0.04602,-0.03972c-0.01539,0 -0.02787,-0.01259 -0.02787,-0.02812s0.01248,-0.02811 0.02787,-0.02811s0.02787,0.01258 0.02787,0.02811s-0.01247,0.02812 -0.02787,0.02812zm0.12704,0.05878c0.00016,-0.00453 -0.00049,-0.00913 -0.00189,-0.01368l0.0102,-0.01467c-0.00154,-0.0029 -0.00328,-0.00564 -0.00526,-0.00814l-0.0174,0.00368c-0.00351,-0.00301 -0.0075,-0.00536 -0.01178,-0.00704l-0.00501,-0.0172c-0.00317,-0.00056 -0.00637,-0.00087 -0.00962,-0.00088l-0.00799,0.01602c-0.00229,0.00045 -0.00458,0.00106 -0.00682,0.00193c-0.00211,0.00081 -0.00408,0.00182 -0.00596,0.00292l-0.01645,-0.00678c-0.00244,0.00217 -0.00466,0.00451 -0.00667,0.00705l0.00744,0.01628c-0.00212,0.0041 -0.00358,0.0085 -0.00426,0.01311l-0.01551,0.00877c0.00016,0.00321 0.00062,0.00642 0.00134,0.00964l0.01725,0.00429c0.00189,0.00433 0.00444,0.00821 0.00751,0.01152l-0.00289,0.01769c0.00262,0.0019 0.00541,0.00354 0.00831,0.00496l0.01406,-0.01092c0.0044,0.00117 0.009,0.00161 0.01363,0.00124l0.01191,0.01329c0.00164,-0.00047 0.00327,-0.00098 0.00489,-0.0016c0.00144,-0.00055 0.00279,-0.00119 0.00414,-0.00184l0.0003,-0.01791c0.00373,-0.0028 0.00691,-0.00618 0.00945,-0.00998l0.01772,-0.00111c0.00125,-0.00297 0.00229,-0.00606 0.00302,-0.00922l-0.01369,-0.01143l0.00003,0.00001zm-0.03414,0.0166c-0.00985,0.00379 -0.02087,-0.00119 -0.02463,-0.01113s0.00117,-0.02106 0.01102,-0.02486c0.00985,-0.00379 0.02089,0.00119 0.02465,0.01113c0.00376,0.00994 -0.00119,0.02106 -0.01104,0.02486z" id="svg_5"/>
  <path fill="#ffffff" d="m2.43527,31.45359c2.1607,-0.01403 4.3214,-0.02806 6.48209,-0.04209c0.01423,-2.21905 0.02845,-4.43811 0.04267,-6.65716c2.15037,0 4.30075,0 6.45113,0c0,-2.23267 0,-4.46534 0,-6.69801c2.20545,0 4.41089,0 6.61633,0c0,-2.17822 0,-4.35643 0,-6.53464c2.17821,0 4.35643,0 6.53464,0c0,-2.17821 0,-4.35643 0,-6.53464c3.2401,0 6.48019,0 9.72028,0c0,1.08911 0,2.17822 0,3.26732c-2.15099,0 -4.30197,0 -6.45296,0c0,2.20544 0,4.41089 0,6.61633c-2.17821,0 -4.35642,0 -6.53464,0c0,2.20545 0,4.41089 0,6.61633c-2.17822,0 -4.35643,0 -6.53464,0c0,2.20544 0,4.41089 0,6.61632c-2.20545,0 -4.41089,0 -6.61633,0c0,2.23267 0,4.46534 0,6.69801c-3.26732,0 -6.53464,0 -9.80196,0c0.14566,-1.0823 -0.24831,-2.30271 0.09339,-3.34775l0,0l0,0.00001z" id="svg_11"/>
 </g>

</svg>