<svg width="40" height="40" xmlns="http://www.w3.org/2000/svg">
 <g>
  <title>Layer 1</title>
  <path fill="#fff" stroke="#000" d="m916.6601,337.64908l0.02706,0.28147l-0.01116,0.03322l0.03408,0.24116l-0.01115,0.04027l0.04213,0.40384l-0.07146,-0.30948l0.01363,-0.04298l-0.0444,-0.19822l0.01591,-0.06126l-0.04688,-0.20794l0.05224,-0.18009l0,0.00001z" id="svg_15"/>
  <ellipse fill="none" stroke="#ffffff" stroke-width="8" cx="186.5851" cy="258.2" id="svg_34" rx="18" ry="18"/>
  <ellipse fill="none" stroke="#ffffff" stroke-width="8" cx="93.5851" cy="270.2" id="svg_37" rx="22" ry="22" transform="rotate(180, 93.585, 270.2)"/>
  <path id="svg_2" d="m2.03664,3.89158l0,30.075l36.35825,0l0,-30.075l-36.35825,0zm30.63519,27.49357l-24.91213,0l0,-24.91213l24.91213,0l0,24.91213zm-18.85243,-15.14927c1.92025,0 3.47827,-1.55802 3.47827,-3.47827c0,-1.9216 -1.55802,-3.47827 -3.47827,-3.47827c-1.9216,0 -3.47827,1.55802 -3.47827,3.47827c0,1.92025 1.55667,3.47827 3.47827,3.47827zm17.50717,3.02985l-6.62124,-6.62124l-9.31444,9.31444l-2.58144,-2.58144l-3.70585,3.70585l0,6.9552l22.22297,0l0,-10.77281z" fill="#ffffff"/>
 </g>

</svg>