<svg width="40" height="40" xmlns="http://www.w3.org/2000/svg">
 <g>
  <title>Layer 1</title>
  <path fill="#fff" stroke="#000" d="m916.6601,337.64908l0.02706,0.28147l-0.01116,0.03322l0.03408,0.24116l-0.01115,0.04027l0.04213,0.40384l-0.07146,-0.30948l0.01363,-0.04298l-0.0444,-0.19822l0.01591,-0.06126l-0.04688,-0.20794l0.05224,-0.18009l0,0.00001z" id="svg_15"/>
  <ellipse fill="none" stroke="#ffffff" stroke-width="8" cx="186.5851" cy="258.2" id="svg_34" rx="18" ry="18"/>
  <ellipse fill="none" stroke="#ffffff" stroke-width="8" cx="93.5851" cy="270.2" id="svg_37" rx="22" ry="22" transform="rotate(180, 93.585, 270.2)"/>
  <path fill="#000000" d="m-17.19658,-11.42435l-0.00638,-0.02253c0.00187,-0.00165 0.00362,-0.00342 0.00528,-0.00532l0.02231,0.00644c0.00235,-0.00346 0.00438,-0.00713 0.00619,-0.01094l-0.01661,-0.01621c0.0008,-0.00238 0.00148,-0.00481 0.00198,-0.0073l0.02238,-0.00566c0.00016,-0.00208 0.00032,-0.00418 0.00032,-0.00631s-0.00016,-0.00422 -0.00032,-0.0063l-0.02238,-0.00566c-0.0005,-0.0025 -0.00119,-0.00492 -0.00198,-0.0073l0.01661,-0.01621c-0.00182,-0.00381 -0.00385,-0.00749 -0.0062,-0.01094l-0.02231,0.00643c-0.00165,-0.00189 -0.00341,-0.00366 -0.00528,-0.00532l0.00638,-0.02252c-0.00343,-0.00237 -0.00708,-0.00442 -0.01086,-0.00625l-0.01607,0.01676c-0.00235,-0.0008 -0.00476,-0.00149 -0.00724,-0.00199l-0.0056,-0.02258c-0.00207,-0.00016 -0.00414,-0.00032 -0.00626,-0.00032s-0.00418,0.00017 -0.00625,0.00032l-0.00561,0.02258c-0.00248,0.0005 -0.00488,0.00119 -0.00724,0.00199l-0.01607,-0.01676c-0.00377,0.00185 -0.00741,0.0039 -0.01084,0.00627l0.00638,0.02252c-0.00187,0.00165 -0.00363,0.00343 -0.00527,0.00531l-0.02232,-0.00644c-0.00235,0.00346 -0.00438,0.00714 -0.00619,0.01095l0.01661,0.01621c-0.00079,0.00238 -0.00148,0.00481 -0.00198,0.0073l-0.02239,0.00566c-0.00016,0.00208 -0.00032,0.00418 -0.00032,0.0063s0.00016,0.00422 0.00032,0.00631l0.02239,0.00566c0.0005,0.0025 0.00119,0.00492 0.00198,0.0073l-0.01661,0.01621c0.00181,0.00381 0.00384,0.00749 0.00619,0.01094l0.02232,-0.00644c0.00164,0.00189 0.0034,0.00366 0.00527,0.00532l-0.00638,0.02253c0.00343,0.00237 0.00708,0.00441 0.01085,0.00625l0.01607,-0.01676c0.00236,0.0008 0.00476,0.0015 0.00724,0.00199l0.00561,0.02258c0.00207,0.00017 0.00414,0.00032 0.00626,0.00032s0.00418,-0.00017 0.00626,-0.00032l0.0056,-0.02258c0.00248,-0.0005 0.00489,-0.0012 0.00724,-0.00199l0.01607,0.01676c0.00376,-0.00185 0.00741,-0.0039 0.01084,-0.00626l0.00001,0zm-0.04602,-0.03972c-0.01539,0 -0.02787,-0.01259 -0.02787,-0.02812s0.01248,-0.02811 0.02787,-0.02811s0.02787,0.01258 0.02787,0.02811s-0.01247,0.02812 -0.02787,0.02812zm0.12704,0.05878c0.00016,-0.00453 -0.00049,-0.00913 -0.00189,-0.01368l0.0102,-0.01467c-0.00154,-0.0029 -0.00328,-0.00564 -0.00526,-0.00814l-0.0174,0.00368c-0.00351,-0.00301 -0.0075,-0.00536 -0.01178,-0.00704l-0.00501,-0.0172c-0.00317,-0.00056 -0.00637,-0.00087 -0.00962,-0.00088l-0.00799,0.01602c-0.00229,0.00045 -0.00458,0.00106 -0.00682,0.00193c-0.00211,0.00081 -0.00408,0.00182 -0.00596,0.00292l-0.01645,-0.00678c-0.00244,0.00217 -0.00466,0.00451 -0.00667,0.00705l0.00744,0.01628c-0.00212,0.0041 -0.00358,0.0085 -0.00426,0.01311l-0.01551,0.00877c0.00016,0.00321 0.00062,0.00642 0.00134,0.00964l0.01725,0.00429c0.00189,0.00433 0.00444,0.00821 0.00751,0.01152l-0.00289,0.01769c0.00262,0.0019 0.00541,0.00354 0.00831,0.00496l0.01406,-0.01092c0.0044,0.00117 0.009,0.00161 0.01363,0.00124l0.01191,0.01329c0.00164,-0.00047 0.00327,-0.00098 0.00489,-0.0016c0.00144,-0.00055 0.00279,-0.00119 0.00414,-0.00184l0.0003,-0.01791c0.00373,-0.0028 0.00691,-0.00618 0.00945,-0.00998l0.01772,-0.00111c0.00125,-0.00297 0.00229,-0.00606 0.00302,-0.00922l-0.01369,-0.01143l0.00003,0.00001zm-0.03414,0.0166c-0.00985,0.00379 -0.02087,-0.00119 -0.02463,-0.01113s0.00117,-0.02106 0.01102,-0.02486c0.00985,-0.00379 0.02089,0.00119 0.02465,0.01113c0.00376,0.00994 -0.00119,0.02106 -0.01104,0.02486z" id="svg_5"/>
  <path fill="#ffffff" d="m34.7074,20.90791l5.00291,-2.64602c-0.09835,-0.98038 -0.28842,-1.93141 -0.5262,-2.86631l-5.55752,-0.76958c-0.48102,-1.15876 -1.11623,-2.23348 -1.8629,-3.22002l2.11845,-5.21014c-0.69658,-0.67935 -1.44887,-1.29872 -2.24066,-1.86862l-4.71906,2.96256c-1.10662,-0.58195 -2.2989,-1.02395 -3.55051,-1.30782l-1.70539,-5.28332c-0.48367,-0.03652 -0.96719,-0.07511 -1.46044,-0.07511s-0.9754,0.0377 -1.46052,0.07511l-1.6885,5.23652c-1.28516,0.27477 -2.50376,0.72191 -3.63883,1.31104l-4.64556,-2.91899c-0.79079,0.56991 -1.54304,1.18928 -2.23957,1.86862l2.06015,5.06623c-0.80295,1.02909 -1.47519,2.16454 -1.98012,3.38828l-5.38207,0.74434c-0.23678,0.93359 -0.42784,1.88361 -0.52518,2.86619l4.83054,2.55576c0.05473,1.34536 0.27778,2.64924 0.67276,3.87709l-3.6439,4.02905c0.42388,0.87918 0.89581,1.7318 1.44174,2.53172l5.36482,-1.15172c0.8796,0.95705 1.88176,1.79559 2.98744,2.48902l-0.20335,5.48901c0.88108,0.39738 1.79654,0.72995 2.73995,0.99579l3.39402,-4.36267c0.6022,0.07688 1.21202,0.12866 1.834,0.12866c0.67381,0 1.33275,-0.06087 1.98109,-0.14995l3.41169,4.38687c0.94489,-0.26553 1.85895,-0.59808 2.73995,-0.99549l-0.20727,-5.58758c1.05386,-0.68227 2.00947,-1.49851 2.85195,-2.42007l5.50435,1.18107c0.54594,-0.7998 1.01793,-1.65151 1.44166,-2.53142l-3.76192,-4.16096c0.36137,-1.16302 0.56324,-2.39074 0.62201,-3.65716l0,0l-0.00002,0.00002zm-11.19777,5.42942l-0.94832,0.22916c-0.75895,0.29193 -1.57605,0.46943 -2.4374,0.46943c-3.76191,0 -6.81058,-3.04987 -6.81058,-6.81119c0,-3.76148 3.04867,-6.81017 6.81058,-6.81017c3.76093,0 6.81071,3.0487 6.81071,6.81017c0,1.87965 -0.76144,3.57882 -1.99226,4.81167l-0.71209,0.78619l-0.72063,0.51475z" id="svg_9"/>
 </g>

</svg>